<?xml version="1.0" standalone="no"?>
<!DOCTYPE svg PUBLIC "-//W3C//DTD SVG 20010904//EN"
 "http://www.w3.org/TR/2001/REC-SVG-20010904/DTD/svg10.dtd">
<svg version="1.0" xmlns="http://www.w3.org/2000/svg"
 width="480.000000pt" height="480.000000pt" viewBox="0 0 480.000000 480.000000"
 preserveAspectRatio="xMidYMid meet">

<g transform="translate(0.000000,480.000000) scale(0.100000,-0.100000)"
fill="#000000" stroke="none">
<path d="M1355 4446 c-419 -110 -759 -417 -874 -790 -95 -309 -50 -698 115
-993 105 -189 284 -368 469 -469 l67 -37 -6 -56 c-39 -355 -50 -821 -23 -938
43 -185 116 -321 240 -446 86 -87 110 -102 262 -168 11 -4 72 -17 135 -29 106
-19 155 -20 675 -20 l562 0 104 31 c160 48 271 112 373 214 69 68 109 127 156
228 71 151 75 184 74 602 -1 274 -5 407 -18 514 -16 144 -16 144 5 159 70 49
177 143 244 214 180 191 285 372 347 596 31 111 31 396 0 563 -89 475 -325
712 -809 809 -145 29 -207 30 -232 5 -40 -42 -36 -54 59 -188 49 -70 90 -134
90 -142 0 -8 -8 -15 -18 -15 -33 0 -133 -30 -187 -56 -74 -37 -115 -76 -115
-112 0 -35 14 -48 150 -140 216 -146 352 -278 413 -402 28 -57 32 -74 31 -145
-1 -95 -26 -177 -86 -279 -48 -81 -153 -191 -221 -231 l-47 -27 -243 18 c-190
14 -352 18 -752 18 -504 0 -597 -5 -796 -40 -32 -5 -43 0 -116 55 -136 102
-214 204 -258 334 -32 96 -33 184 -4 262 51 137 222 332 395 452 137 96 144
102 144 132 0 51 -35 77 -202 145 -21 8 -38 21 -37 28 0 15 92 92 204 173 99
70 116 94 95 133 -9 15 -31 35 -50 44 -53 27 -200 24 -315 -6z m-47 -229
c-148 -147 -143 -207 20 -263 45 -16 81 -31 80 -35 -2 -3 -46 -41 -98 -85
-171 -144 -310 -334 -354 -483 -9 -30 -16 -86 -16 -125 1 -238 148 -471 407
-644 94 -62 72 -60 313 -26 183 26 1013 26 1386 0 l260 -18 48 21 c70 31 164
101 228 169 114 124 183 257 214 416 15 76 16 99 5 160 -23 136 -91 245 -242
391 -52 50 -134 119 -183 155 -82 59 -86 64 -65 73 13 4 77 7 141 5 106 -3
120 -1 138 17 11 11 22 34 25 50 5 26 -6 47 -75 149 -44 66 -79 120 -77 122 1
2 43 -9 92 -22 395 -112 567 -388 569 -914 1 -155 -2 -184 -22 -255 -76 -263
-247 -490 -529 -703 -50 -38 -85 -72 -89 -87 -3 -13 -1 -47 5 -77 23 -119 34
-321 35 -648 1 -379 -1 -400 -60 -528 -76 -167 -207 -281 -399 -349 l-80 -27
-600 -1 c-665 0 -653 -1 -793 68 -100 48 -207 158 -260 267 -71 143 -86 224
-84 440 1 102 9 277 17 390 25 330 28 386 21 414 -5 21 -22 34 -80 60 -106 48
-188 107 -289 205 -178 173 -276 373 -312 641 -19 135 -19 222 0 340 51 313
230 555 525 709 85 44 214 98 243 100 5 1 -25 -32 -65 -72z"/>
<path d="M2878 1737 c-104 -39 -182 -110 -226 -206 -23 -48 -27 -70 -27 -151
0 -86 3 -101 31 -160 100 -209 347 -280 534 -152 194 132 216 420 44 582 -29
28 -75 60 -101 72 -61 27 -201 35 -255 15z"/>
<path d="M1673 1706 c-103 -33 -180 -105 -231 -213 -23 -50 -27 -70 -26 -148
1 -111 28 -179 104 -259 74 -78 150 -110 260 -110 71 -1 94 4 142 26 188 87
273 313 190 502 -29 64 -111 147 -179 181 -70 34 -190 44 -260 21z"/>
</g>
</svg>
